<?xml version="1.0" encoding="UTF-8"?>
<!DOCTYPE svg PUBLIC "-//W3C//DTD SVG 1.1//EN" "http://www.w3.org/Graphics/SVG/1.1/DTD/svg11.dtd">
<!-- Creator: CorelDRAW -->
<svg xmlns="http://www.w3.org/2000/svg" xml:space="preserve" width="2048px" height="2048px" style="shape-rendering:geometricPrecision; text-rendering:geometricPrecision; image-rendering:optimizeQuality; fill-rule:evenodd; clip-rule:evenodd"
viewBox="0 0 2048 2048"
 xmlns:xlink="http://www.w3.org/1999/xlink">
 <defs>
  <style type="text/css">
   <![CDATA[
    .fil2 {fill:none}
    .fil3 {fill:#33691E}
    .fil1 {fill:#45BBCB}
    .fil0 {fill:#4DD0E1}
    .fil7 {fill:#558B2F}
    .fil6 {fill:#689F38}
    .fil4 {fill:#7CB342}
    .fil5 {fill:#33691E;fill-rule:nonzero}
   ]]>
  </style>
   <clipPath id="id0">
    <path d="M1024 0c565.539,0 1024,458.461 1024,1024 0,565.539 -458.461,1024 -1024,1024 -565.539,0 -1024,-458.461 -1024,-1024 0,-565.539 458.461,-1024 1024,-1024z"/>
   </clipPath>
 </defs>
 <g id="Layer_x0020_1">
  <metadata id="CorelCorpID_0Corel-Layer"/>
  <path class="fil0" d="M1024 0c565.539,0 1024,458.461 1024,1024 0,565.539 -458.461,1024 -1024,1024 -565.539,0 -1024,-458.461 -1024,-1024 0,-565.539 458.461,-1024 1024,-1024z"/>
  <g style="clip-path:url(#id0)">
   <g id="_341215480">
    <g>
     <polygon id="_3384471121" class="fil1" points="1434.81,493.959 2570.69,1629.84 2696.35,2026.56 1560.47,890.677 "/>
     <polygon id="_338447304" class="fil1" points="1560.47,890.677 2696.35,2026.56 2696.97,2028.68 2697.46,2030.8 2697.85,2032.93 2698.13,2035.05 2698.29,2037.18 2698.36,2039.29 2698.31,2041.4 2698.17,2043.49 2697.92,2045.56 2697.57,2047.61 2697.13,2049.63 2696.59,2051.63 2695.95,2053.6 2695.23,2055.53 2694.41,2057.42 2693.51,2059.27 1557.62,923.392 1558.53,921.542 1559.35,919.648 1560.07,917.717 1560.71,915.751 1561.25,913.752 1561.69,911.727 1562.04,909.675 1562.29,907.603 1562.43,905.514 1562.47,903.409 1562.41,901.294 1562.25,899.172 1561.97,897.046 1561.58,894.918 1561.08,892.795 "/>
     <polygon id="_338448120" class="fil1" points="1557.62,923.392 2693.51,2059.27 2692.51,2061.08 2691.44,2062.84 2690.28,2064.54 2689.03,2066.19 2687.71,2067.79 2686.31,2069.32 2684.83,2070.78 2683.28,2072.18 2681.65,2073.5 2679.96,2074.74 2678.19,2075.91 2676.36,2077 2674.46,2078 2672.5,2078.9 2670.48,2079.72 2668.4,2080.44 1532.51,944.557 1534.6,943.837 1536.62,943.022 1538.58,942.113 1540.48,941.115 1542.31,940.031 1544.08,938.863 1545.77,937.616 1547.4,936.294 1548.95,934.898 1550.43,933.434 1551.83,931.903 1553.15,930.313 1554.39,928.661 1555.56,926.956 1556.63,925.198 "/>
     <polygon id="_338447976" class="fil1" points="1532.51,944.557 2668.4,2080.44 2510.27,2130.53 1374.39,994.644 "/>
     <polygon id="_338447952" class="fil1" points="1556.42,1011.18 2692.3,2147.06 2693.88,2148.89 2695.38,2150.79 2696.79,2152.77 2698.1,2154.82 2699.32,2156.93 2700.43,2159.1 2701.44,2161.33 2702.35,2163.62 2703.14,2165.96 2703.82,2168.35 2704.39,2170.78 2704.83,2173.26 2705.15,2175.78 2705.35,2178.33 2705.42,2180.92 1569.53,1045.04 1569.47,1042.45 1569.27,1039.9 1568.95,1037.38 1568.51,1034.9 1567.94,1032.46 1567.26,1030.07 1566.47,1027.73 1565.56,1025.45 1564.55,1023.22 1563.44,1021.04 1562.22,1018.93 1560.91,1016.89 1559.5,1014.91 1558,1013.01 "/>
     <polygon id="_338448216" class="fil1" points="1569.53,1045.04 2705.42,2180.92 2705.42,2669.49 1569.53,1533.61 "/>
     <polygon id="_338447904" class="fil1" points="1569.53,1533.61 2705.42,2669.49 2705.35,2672.08 2705.15,2674.63 2704.83,2677.15 2704.39,2679.63 2703.82,2682.06 2703.14,2684.45 2702.35,2686.79 2701.44,2689.08 2700.43,2691.31 2699.32,2693.48 2698.1,2695.59 2696.79,2697.64 2695.38,2699.61 2693.88,2701.52 2692.3,2703.35 2690.63,2705.1 1554.75,1569.21 1556.42,1567.46 1558,1565.64 1559.5,1563.73 1560.91,1561.76 1562.22,1559.71 1563.44,1557.6 1564.55,1555.43 1565.56,1553.2 1566.47,1550.91 1567.26,1548.57 1567.94,1546.18 1568.51,1543.74 1568.95,1541.27 1569.27,1538.75 1569.47,1536.19 "/>
     <polygon id="_338448480" class="fil1" points="1554.75,1569.21 2690.63,2705.1 2688.88,2706.77 2687.05,2708.35 2685.15,2709.85 2683.17,2711.26 2681.13,2712.57 2679.02,2713.78 2676.84,2714.9 2674.61,2715.91 2672.32,2716.82 2669.98,2717.61 2667.59,2718.29 2665.16,2718.86 2662.68,2719.3 2660.16,2719.62 2657.61,2719.82 2655.02,2719.88 1519.14,1584 1521.73,1583.94 1524.28,1583.74 1526.8,1583.42 1529.28,1582.97 1531.71,1582.41 1534.1,1581.73 1536.44,1580.93 1538.73,1580.03 1540.96,1579.02 1543.13,1577.9 1545.24,1576.69 1547.29,1575.37 1549.26,1573.97 1551.17,1572.47 1553,1570.88 "/>
     <polygon id="_338448096" class="fil1" points="1519.14,1584 2655.02,2719.88 1664.74,2719.88 528.859,1584 "/>
     <polygon id="_338448528" class="fil1" points="528.859,1584 1664.74,2719.88 1662.15,2719.82 1659.6,2719.62 1657.08,2719.3 1654.6,2718.86 1652.17,2718.29 1649.78,2717.61 1647.44,2716.82 1645.15,2715.91 1642.92,2714.9 1640.75,2713.78 1638.64,2712.57 1636.59,2711.26 1634.62,2709.85 1632.71,2708.35 496.832,1572.47 498.736,1573.97 500.712,1575.37 502.757,1576.69 504.867,1577.9 507.039,1579.02 509.272,1580.03 511.558,1580.93 513.898,1581.73 516.287,1582.41 518.723,1582.97 521.201,1583.42 523.718,1583.74 526.272,1583.94 "/>
     <polygon id="_338448552" class="fil1" points="1426.54,479.074 2562.42,1614.96 2563.75,1616.58 2564.99,1618.28 2566.16,1620.04 2567.25,1621.87 2568.25,1623.77 2569.15,1625.73 2569.97,1627.76 2570.69,1629.84 1434.81,493.959 1434.09,491.875 1433.27,489.851 1432.36,487.89 1431.37,485.992 1430.28,484.16 1429.11,482.394 1427.87,480.7 "/>
    </g>
    <path id="_341214784" class="fil1" d="M1434.81 493.959l125.665 396.718c3.57048,11.2701 2.21339,22.9618 -2.84764,32.7154 -5.06103,9.75355 -13.839,17.5937 -25.1103,21.1642l-158.121 50.087 144.748 0c13.8815,0 26.4862,5.66339 35.6079,14.7862 9.12166,9.1193 14.7851,21.7252 14.7851,35.6067l0 488.57c0,13.8815 -5.66339,26.4862 -14.7851,35.6079 -9.12166,9.12284 -21.7264,14.7862 -35.6079,14.7862l-990.282 0c-13.8803,0 -26.4851,-5.66339 -35.6067,-14.7862 -9.12284,-9.12166 -14.7862,-21.7264 -14.7862,-35.6079l0 -488.57c0,-13.8815 5.66339,-26.4874 14.7862,-35.6067 9.12166,-9.12284 21.724,-14.7862 35.6067,-14.7862l89.7107 0 -69.704 -220.051c-3.57048,-11.2724 -2.21339,-22.963 2.84764,-32.7154 5.06103,-9.75355 13.8378,-17.5937 25.1103,-21.1642l804.103 -254.71c11.2713,-3.57048 22.963,-2.21457 32.7154,2.84646 9.75355,5.05985 17.5949,13.8378 21.1654,25.1091z"/>
   </g>
  </g>
  <path class="fil2" d="M1024 0c565.539,0 1024,458.461 1024,1024 0,565.539 -458.461,1024 -1024,1024 -565.539,0 -1024,-458.461 -1024,-1024 0,-565.539 458.461,-1024 1024,-1024z"/>
  <path class="fil3" d="M576.824 720.713l804.103 -254.71c11.2713,-3.57048 22.963,-2.21457 32.7166,2.84646 9.75237,5.05985 17.5925,13.8378 21.163,25.1091l125.666 396.717c3.56929,11.2713 2.21339,22.963 -2.84764,32.7166 -5.06103,9.75355 -13.839,17.5937 -25.1103,21.1642l-804.103 254.71c-11.2713,3.57048 -22.9618,2.21457 -32.7154,-2.84646 -9.75355,-5.06103 -17.5937,-13.839 -21.1642,-25.1103l-125.666 -396.717c-3.57048,-11.2724 -2.21339,-22.963 2.84764,-32.7154 5.06103,-9.75355 13.8378,-17.5937 25.1103,-21.1642z"/>
  <path class="fil4" d="M575.66 747.135l90.8753 -28.7858c1.09016,1.55197 2.13543,3.14882 3.13229,4.78819 3.43937,5.65512 6.33189,12.0213 8.55946,19.0536 7.23662,22.8461 4.52953,46.4622 -5.69882,66.1737 -10.226,19.7079 -27.9768,35.5193 -50.8241,42.7571 -5.99174,1.89803 -11.6799,3.11457 -17.0197,3.69213l-0.732284 0.0755906 -31.9193 -100.767c-0.453544,-1.43268 -0.266929,-2.94803 0.396851,-4.22835 0.664961,-1.2815 1.79646,-2.30551 3.23032,-2.75906z"/>
  <path class="fil4" d="M713.639 1182.73l90.8753 -28.7858c-0.00236221,-1.89685 -0.0673229,-3.80551 -0.194882,-5.7189 -0.445276,-6.60473 -1.74567,-13.4752 -3.97323,-20.5063 -7.23662,-22.8473 -23.0469,-40.5969 -42.7583,-50.8241 -19.7079,-10.226 -43.3252,-12.9343 -66.1725,-5.69764 -5.99174,1.89803 -11.3433,4.17874 -16.0417,6.78071l-0.64252 0.359055 31.9193 100.767c0.453544,1.43386 1.47874,2.56418 2.75906,3.22914 1.2815,0.664961 2.79567,0.850394 4.22953,0.396851z"/>
  <path class="fil4" d="M1535.07 922.528l-90.8764 28.7858c-1.08898,-1.55197 -2.13543,-3.14882 -3.13229,-4.78819 -3.43937,-5.65512 -6.33071,-12.0213 -8.55827,-19.0536 -7.2378,-22.8473 -4.52953,-46.4622 5.69764,-66.1737 10.226,-19.7079 27.9768,-35.5193 50.8241,-42.7571 5.99174,-1.89803 11.6811,-3.11457 17.0197,-3.69213l0.732284 -0.0767717 31.9193 100.768c0.453544,1.43268 0.266929,2.94803 -0.396851,4.22835 -0.66378,1.2815 -1.79528,2.30551 -3.22914,2.75906z"/>
  <path class="fil4" d="M1397.09 486.936l-90.8753 28.7858c0.00236221,1.89685 0.0673229,3.80433 0.196063,5.71772 0.444095,6.60591 1.74449,13.4764 3.97205,20.5075 7.23662,22.8473 23.0469,40.5969 42.7583,50.8241 19.7079,10.226 43.3252,12.9343 66.1725,5.69764 5.99174,-1.89803 11.3433,-4.17992 16.0417,-6.78071l0.64252 -0.359055 -31.9193 -100.767c-0.453544,-1.43386 -1.47756,-2.56536 -2.75906,-3.22914 -1.28032,-0.664961 -2.79567,-0.851575 -4.22953,-0.396851z"/>
  <path class="fil4" d="M991.905 634.49c54.7134,-17.3315 111.275,-10.8437 158.491,13.6559 47.217,24.4996 85.0867,67.0099 102.418,121.723 17.3315,54.7146 10.8437,111.276 -13.6559,158.492 -24.4996,47.217 -67.0099,85.0867 -121.723,102.418 -54.7146,17.3315 -111.276,10.8437 -158.492,-13.6559 -47.2158,-24.4996 -85.0867,-67.0099 -102.418,-121.725 -17.3315,-54.7134 -10.8437,-111.275 13.6559,-158.491 24.4996,-47.217 67.0099,-85.0867 121.725,-102.418z"/>
  <path class="fil5" d="M1091.32 953.711l-7.58505 -23.9457c-12.4701,2.30079 -23.0421,2.7 -31.7622,1.21299 -8.72009,-1.48819 -17.204,-5.7 -25.376,-12.5599 -8.18741,-6.90591 -14.6929,-16.3937 -19.4847,-28.5248l22.6417 -12.1713c5.93504,12.2681 12.2008,20.6823 18.841,25.2284 9.42993,6.41221 19.0134,8.57599 28.7221,6.5504l-24.1512 -76.2414c-10.4504,1.26024 -21.6992,0.624804 -33.841,-1.87914 -8.98701,-1.85315 -16.7185,-5.90315 -23.2429,-12.1358 -6.52441,-6.23268 -11.2748,-14.1272 -14.3114,-23.7142 -5.39646,-17.0374 -3.72874,-32.765 4.97244,-47.1201 5.82756,-9.69568 16.4551,-17.811 31.8095,-24.4252l-3.62717 -11.4496 14.1307 -4.4752 3.62717 11.4496c14.3197,-3.08622 26.7024,-2.50866 36.9945,1.73032 13.2437,5.35276 23.2996,15.3165 30.2421,29.8158l-23.5819 11.5701c-4.3878,-8.95985 -9.62953,-15.248 -15.711,-18.8221 -6.03662,-3.58701 -13.2213,-4.96063 -21.5398,-4.07481l21.8764 69.0615c13.0051,-0.768898 21.75,-0.938977 26.191,-0.496063 8.48741,0.910631 15.8421,2.9811 22.0051,6.17835 6.22205,3.22796 11.6268,7.66654 16.1693,13.3264 4.60276,5.69174 8.09174,12.2858 10.4811,19.8284 5.26654,16.6288 4.32638,32.126 -2.70236,46.5508 -7.01575,14.4709 -18.8209,24.7099 -35.328,30.8386l7.67127 24.2173 -14.1307 4.47638zm-66.4489 -209.778c-8.8689,4.35827 -15.0496,10.4161 -18.4973,18.1571 -3.44646,7.74095 -3.86811,15.724 -1.24843,23.9941 2.57599,8.1319 7.02048,14.2736 13.3524,18.3177 6.32953,4.0441 15.45,6.00473 27.391,5.82166l-20.9977 -66.2906zm66.5752 161.092c8.95512,-4.08544 15.3532,-10.5614 19.2532,-19.3973 3.90118,-8.83465 4.22481,-18.3862 0.986221,-28.6099 -2.74843,-8.67757 -7.14567,-14.9835 -13.0866,-18.9012 -5.98465,-3.90355 -16.0689,-5.90906 -30.2516,-6.01654l23.0988 72.9249z"/>
  <path class="fil6" d="M528.859 994.644l990.282 0c13.8815,0 26.4862,5.66339 35.6079,14.7851 9.12166,9.12048 14.7851,21.7252 14.7851,35.6079l0 488.57c0,13.8815 -5.66339,26.4862 -14.7851,35.6079 -9.12166,9.12166 -21.7264,14.7851 -35.6079,14.7851l-990.282 0c-13.8803,0 -26.4851,-5.66339 -35.6067,-14.7851 -9.12284,-9.12166 -14.7862,-21.7264 -14.7862,-35.6079l0 -488.57c0,-13.8827 5.66339,-26.4874 14.7862,-35.6079 9.12166,-9.12166 21.724,-14.7851 35.6067,-14.7851z"/>
  <path class="fil7" d="M518.189 1023.8l111.917 0c0.669686,2.1248 1.27323,4.28268 1.80827,6.47008 1.84488,7.54961 2.82402,15.7004 2.82402,24.3603 0,28.1362 -11.4024,53.6079 -29.837,72.0426 -18.4323,18.4323 -43.9063,29.837 -72.0426,29.837 -7.37953,0 -14.178,-0.655512 -20.3587,-1.90158l-0.846851 -0.173622 0 -124.099c0,-1.76575 0.746457,-3.39449 1.94291,-4.59331 1.19882,-1.19764 2.82756,-1.94291 4.59331,-1.94291z"/>
  <path class="fil7" d="M518.189 1560.25l111.917 0c0.669686,-2.1248 1.27323,-4.28268 1.80827,-6.47008 1.84488,-7.54961 2.82402,-15.7004 2.82402,-24.3603 0,-28.1362 -11.4024,-53.6067 -29.837,-72.0426 -18.4323,-18.4323 -43.9063,-29.837 -72.0426,-29.837 -7.37953,0 -14.178,0.655512 -20.3587,1.90158l-0.846851 0.174803 0 124.097c0,1.76575 0.746457,3.39449 1.94291,4.59331 1.19882,1.19764 2.82756,1.94291 4.59331,1.94291z"/>
  <path class="fil7" d="M1529.81 1560.25l-111.917 0c-0.669686,-2.1248 -1.27323,-4.28268 -1.80827,-6.47008 -1.84488,-7.54961 -2.82402,-15.7004 -2.82402,-24.3603 0,-28.1362 11.4024,-53.6067 29.8382,-72.0426 18.4311,-18.4323 43.9052,-29.837 72.0414,-29.837 7.38071,0 14.178,0.655512 20.3587,1.90158l0.846851 0.174803 0 124.097c0,1.76575 -0.745276,3.39449 -1.94291,4.59331 -1.19764,1.19764 -2.82756,1.94291 -4.59331,1.94291z"/>
  <path class="fil7" d="M1529.81 1023.8l-111.917 0c-0.669686,2.1248 -1.27323,4.28268 -1.80827,6.47008 -1.8437,7.54961 -2.82402,15.7004 -2.82402,24.3603 0,28.1362 11.4024,53.6079 29.8382,72.0426 18.4311,18.4323 43.9052,29.837 72.0414,29.837 7.38071,0 14.178,-0.656693 20.3587,-1.90158l0.846851 -0.173622 0 -124.099c0,-1.76575 -0.745276,-3.39449 -1.94291,-4.59331 -1.19764,-1.19764 -2.82756,-1.94291 -4.59331,-1.94291z"/>
  <path class="fil4" d="M1024 1045.3c67.3819,0 128.388,27.3142 172.549,71.4745 44.1603,44.1603 71.4745,105.165 71.4745,172.547 0,67.3819 -27.3142,128.388 -71.4745,172.549 -44.1603,44.1603 -105.167,71.4745 -172.549,71.4745 -67.3819,0 -128.387,-27.3142 -172.547,-71.4745 -44.1603,-44.1603 -71.4745,-105.167 -71.4745,-172.549 0,-67.3819 27.3142,-128.387 71.4745,-172.547 44.1603,-44.1603 105.165,-71.4745 172.547,-71.4745z"/>
  <path class="fil5" d="M1022.1 1437.83l0 -29.4886c-14.7732,-1.84725 -26.7473,-5.14843 -35.9799,-9.90473 -9.23268,-4.75512 -17.2347,-12.4772 -23.9492,-23.0528 -6.71575,-10.6323 -10.6323,-23.5583 -11.6953,-38.8335l29.6563 -5.59607c2.29488,15.8351 6.32363,27.4748 12.1429,34.9158 8.2819,10.5201 18.241,16.3406 29.8252,17.5146l0 -93.8942c-12.1429,-2.2937 -24.5091,-6.99449 -37.2107,-14.1012 -9.40158,-5.25945 -16.6193,-12.5339 -21.7122,-21.8221 -5.09174,-9.28938 -7.60985,-19.8083 -7.60985,-31.6158 0,-20.9835 7.44213,-37.9937 22.2709,-50.9764 9.96024,-8.78505 24.7323,-14.1 44.2618,-16.0595l0 -14.1 17.4024 0 0 14.1c17.1213,1.62284 30.776,6.65906 40.7918,15.0532 12.926,10.6866 20.6469,25.4044 23.2772,44.0929l-30.4961 4.58859c-1.73504,-11.5831 -5.37166,-20.4803 -10.911,-26.6351 -5.48386,-6.15591 -13.0382,-10.2402 -22.6618,-12.1984l0 85.0524c14.8276,3.75 24.6756,6.65906 29.4886,8.72953 9.17599,4.02874 16.6736,8.95276 22.4386,14.7177 5.8193,5.81811 10.2945,12.7016 13.3725,20.6469 3.13465,8.00197 4.70079,16.6193 4.70079,25.9087 0,20.4791 -6.54686,37.4894 -19.5284,51.143 -12.9815,13.7091 -29.8252,20.9835 -50.4721,21.991l0 29.824 -17.4024 0zm0 -258.349c-11.4721,1.73386 -20.537,6.32245 -27.1394,13.7646 -6.60237,7.44213 -9.90473,16.2272 -9.90473,26.4118 0,10.0158 2.79803,18.4654 8.44961,25.2355 5.65158,6.77127 15.1642,12.1996 28.5945,16.2272l0 -81.639zm17.4024 203.903c11.4697,-1.39843 20.9268,-6.37796 28.4244,-14.8843 7.49882,-8.50512 11.2476,-19.0807 11.2476,-31.6713 0,-10.6878 -2.68583,-19.304 -7.94528,-25.7953 -5.31615,-6.49134 -15.8917,-12.3106 -31.7268,-17.4591l0 89.8099z"/>
 </g>
</svg>
